Coordinates
version=1
nRows=30
nColumns=38
inDegrees=no

Units are S.I. units (second, meters, Newtons, ...)
If the header above contains a line with 'inDegrees', this indicates whether rotational values are in degrees (yes) or radians (no).

endheader
time	pelvis_tilt	pelvis_list	pelvis_rotation	pelvis_tx	pelvis_ty	pelvis_tz	hip_flexion_r	hip_adduction_r	hip_rotation_r	knee_angle_r	ankle_angle_r	subtalar_angle_r	mtp_angle_r	hip_flexion_l	hip_adduction_l	hip_rotation_l	knee_angle_l	ankle_angle_l	subtalar_angle_l	mtp_angle_l	lumbar_extension	lumbar_bending	lumbar_rotation	arm_flex_r	arm_add_r	arm_rot_r	elbow_flex_r	pro_sup_r	wrist_flex_r	wrist_dev_r	arm_flex_l	arm_add_l	arm_rot_l	elbow_flex_l	pro_sup_l	wrist_flex_l	wrist_dev_l
1.17	-0.13174	0.0684452	0.0347605	0.772753	0.998721	-0.332335	-0.0686567	-0.0972919	-0.198548	-1.29492	-0.102015	0.010744	0.00797773	0.63192	0.108021	-0.203901	-0.435481	0.0342997	0.0208734	0.012112	-0.0711687	-0.0743763	0.0144295	-0.22323	-0.217923	0.0892873	1.75473	1.51301	0.0451735	-0.0432545	-0.844291	-0.518731	0.147696	1.98704	1.23308	-0.00973252	0.0262223
1.18	-0.123556	0.0667838	0.0378627	0.77213	0.992672	-0.332235	-0.0346113	-0.103741	-0.195984	-1.40773	-0.0878377	0.010744	0.00797773	0.617543	0.107813	-0.205795	-0.462027	0.0545121	0.0208734	0.012112	-0.0828765	-0.0765192	0.00378442	-0.233011	-0.217443	0.092168	1.71796	1.48992	0.0451735	-0.0432545	-0.808207	-0.526973	0.155278	1.99551	1.23344	-0.00973252	0.0262223
1.19	-0.11732	0.0659812	0.0403374	0.770965	0.985626	-0.332136	0.00707284	-0.110536	-0.190788	-1.52002	-0.0747941	0.010744	0.00797773	0.609469	0.108154	-0.204458	-0.510246	0.0895085	0.0208734	0.012112	-0.0936102	-0.0793242	-0.00828804	-0.242075	-0.217335	0.0953013	1.68045	1.46894	0.0451735	-0.0432545	-0.76843	-0.536093	0.164515	2.004	1.23758	-0.00973252	0.0262223
1.2	-0.113696	0.0659164	0.0424967	0.769186	0.977809	-0.332021	0.0571227	-0.116904	-0.182689	-1.62987	-0.0624755	0.010744	0.00797773	0.606266	0.109604	-0.19978	-0.574087	0.138482	0.0208734	0.012112	-0.102821	-0.0827012	-0.0219075	-0.250829	-0.217558	0.0980279	1.64345	1.45289	0.0451735	-0.0432545	-0.724836	-0.545908	0.175297	2.01237	1.24637	-0.00973252	0.0262223
1.21	-0.113127	0.0663775	0.044593	0.766779	0.969596	-0.331841	0.115997	-0.122007	-0.171586	-1.73521	-0.0504331	0.010744	0.00797773	0.606001	0.112307	-0.192362	-0.646427	0.198644	0.0208734	0.012112	-0.109953	-0.0864465	-0.0371113	-0.259752	-0.218131	0.0998639	1.60828	1.44339	0.0451735	-0.0432545	-0.677449	-0.556125	0.187362	2.02046	1.26029	-0.00973252	0.0262223
1.22	-0.115785	0.0670948	0.0467673	0.763842	0.961402	-0.331554	0.183588	-0.125015	-0.157605	-1.83373	-0.0382603	0.010744	0.00797773	0.606363	0.11593	-0.183159	-0.719958	0.265682	0.0208734	0.012112	-0.114597	-0.0902024	-0.0538192	-0.269328	-0.219168	0.100637	1.57627	1.44052	0.0451735	-0.0432545	-0.626586	-0.566325	0.200266	2.02821	1.27923	-0.00973252	0.0262223
1.23	-0.121448	0.0676798	0.0490173	0.760527	0.953639	-0.331154	0.258935	-0.125209	-0.141161	-1.92296	-0.0256491	0.010744	0.00797773	0.604749	0.119761	-0.173118	-0.788006	0.33452	0.0208734	0.012112	-0.116669	-0.0934887	-0.0718299	-0.279991	-0.220897	0.100524	1.54871	1.44296	0.0451735	-0.0432545	-0.572919	-0.575987	0.213423	2.03569	1.30227	-0.00973252	0.0262223
1.24	-0.129379	0.0676591	0.0512155	0.756987	0.94672	-0.330651	0.340082	-0.12211	-0.122992	-2.00036	-0.0124166	0.010744	0.00797773	0.598389	0.122851	-0.16296	-0.845107	0.400072	0.0208734	0.012112	-0.116511	-0.0957329	-0.090835	-0.292081	-0.223652	0.0999869	1.52675	1.44836	0.0451735	-0.0432545	-0.517454	-0.584528	0.226207	2.04317	1.32767	-0.00973252	0.0262223
1.25	-0.138413	0.0665566	0.0531533	0.753404	0.941067	-0.330062	0.424196	-0.115626	-0.104153	-2.06352	0.00151592	0.010744	0.00797773	0.584599	0.124187	-0.153174	-0.887317	0.457727	0.0208734	0.012112	-0.114844	-0.0963374	-0.110447	-0.305819	-0.227822	0.0996313	1.51134	1.45398	0.0451735	-0.0432545	-0.461446	-0.591369	0.238069	2.05112	1.35293	-0.00973252	0.0262223
1.26	-0.147193	0.0640212	0.0545981	0.75003	0.937081	-0.329409	0.507889	-0.106111	-0.0859439	-2.11044	0.0161579	0.010744	0.00797773	0.561077	0.122839	-0.144112	-0.912267	0.503538	0.0208734	0.012112	-0.112632	-0.0947279	-0.13023	-0.321308	-0.233776	0.10002	1.50307	1.4573	0.0451735	-0.0432545	-0.406268	-0.596012	0.24861	2.06014	1.37521	-0.00973252	0.0262223
1.27	-0.154395	0.05974	0.0553434	0.74715	0.935066	-0.328722	0.587678	-0.0943462	-0.0697612	-2.13965	0.031483	0.010744	0.00797773	0.526242	0.118111	-0.136105	-0.919026	0.534246	0.0208734	0.012112	-0.110852	-0.0904865	-0.149744	-0.338548	-0.241765	0.101488	1.5021	1.45663	0.0451735	-0.0432545	-0.353273	-0.598134	0.257553	2.07085	1.39208	-0.00973252	0.0262223
1.28	-0.158971	0.053531	0.055271	0.744999	0.935203	-0.328025	0.660452	-0.0813845	-0.0569395	-2.15044	0.047443	0.010744	0.00797773	0.479475	0.109613	-0.129538	-0.907909	0.547276	0.0208734	0.012112	-0.110292	-0.0833778	-0.168566	-0.357475	-0.251852	0.104023	1.50816	1.4515	0.0451735	-0.0432545	-0.303675	-0.597654	0.264673	2.08383	1.4025	-0.00973252	0.0262223
1.29	-0.160314	0.0453758	0.0543799	0.743735	0.937512	-0.327339	0.723808	-0.068373	-0.048578	-2.14283	0.0639421	0.010744	0.00797773	0.421233	0.0972862	-0.124883	-0.880273	0.540805	0.0208734	0.012112	-0.111432	-0.0733752	-0.186326	-0.377991	-0.263873	0.107225	1.52054	1.44268	0.0451735	-0.0432545	-0.258443	-0.594762	0.269778	2.09952	1.40701	-0.00973252	0.0262223
1.3	-0.158323	0.0354259	0.052781	0.743448	0.941848	-0.32668	0.776267	-0.0563548	-0.0453798	-2.11752	0.0807641	0.010744	0.00797773	0.353051	0.0813933	-0.122713	-0.838391	0.513929	0.0208734	0.012112	-0.114367	-0.0606617	-0.202717	-0.400002	-0.277474	0.11038	1.5383	1.43186	0.0451735	-0.0432545	-0.218231	-0.589881	0.272773	2.11821	1.40753	-0.00973252	0.0262223
1.31	-0.1534	0.0239929	0.0506579	0.744141	0.94793	-0.326076	0.817371	-0.046091	-0.0475281	-2.07578	0.097473	0.010744	0.00797773	0.277468	0.0624464	-0.123689	-0.785366	0.466893	0.0208734	0.012112	-0.118772	-0.0456042	-0.217507	-0.423432	-0.292177	0.112614	1.56032	1.421	0.0451735	-0.0432545	-0.183353	-0.583578	0.273781	2.1399	1.4065	-0.00973252	0.0262223
1.32	-0.146394	0.0114984	0.0482123	0.745726	0.955369	-0.325545	0.847634	-0.0379458	-0.0546324	-2.01916	0.11334	0.010744	0.00797773	0.197858	0.0411308	-0.128481	-0.725062	0.401333	0.0208734	0.012112	-0.123928	-0.0287242	-0.230542	-0.448206	-0.307458	0.113068	1.58551	1.41183	0.0451735	-0.0432545	-0.153791	-0.576455	0.273215	2.1644	1.40613	-0.00973252	0.0262223
1.33	-0.138498	-0.00167261	0.0456266	0.748033	0.963693	-0.325069	0.868364	-0.0318751	-0.0657483	-1.94933	0.127357	0.010744	0.00797773	0.118123	0.0182706	-0.13761	-0.661963	0.320428	0.0208734	0.012112	-0.128847	-0.010714	-0.24175	-0.474215	-0.322809	0.11106	1.61286	1.40546	0.0451735	-0.0432545	-0.129269	-0.569082	0.27174	2.19125	1.40792	-0.00973252	0.0262223
1.34	-0.131088	-0.0149207	0.0430476	0.750839	0.972392	-0.324634	0.881337	-0.0274837	-0.0795	-1.86783	0.138356	0.010744	0.00797773	0.0422828	-0.00526267	-0.151221	-0.600917	0.228872	0.0208734	0.012112	-0.132446	0.00769542	-0.25114	-0.501261	-0.337772	0.10619	1.6415	1.40218	0.0451735	-0.0432545	-0.109326	-0.561958	0.270151	2.21978	1.41251	-0.00973252	0.0262223
1.35	-0.125446	-0.0275524	0.0405623	0.753898	0.980955	-0.324229	0.888403	-0.0242071	-0.0942344	-1.77589	0.145206	0.010744	0.00797773	-0.0260247	-0.0285078	-0.168885	-0.546744	0.132545	0.0208734	0.012112	-0.133762	0.0256844	-0.258797	-0.52903	-0.351952	0.0983863	1.67067	1.40151	0.0451735	-0.0432545	-0.0934183	-0.555496	0.269215	2.24917	1.41979	-0.00973252	0.0262223
1.36	-0.122531	-0.0388082	0.0381909	0.756968	0.988946	-0.323854	0.891097	-0.0214941	-0.108234	-1.67443	0.147022	0.010744	0.00797773	-0.0840244	-0.0504018	-0.189496	-0.503787	0.0378597	0.0208734	0.012112	-0.132164	0.0423587	-0.264846	-0.55708	-0.36501	0.0878805	1.69975	1.40245	0.0451735	-0.0432545	-0.0809933	-0.550028	0.269546	2.27846	1.42914	-0.00973252	0.0262223
1.37	-0.122798	-0.0479135	0.0358813	0.759857	0.996063	-0.323509	0.890363	-0.0189415	-0.119974	-1.56409	0.143322	0.010744	0.00797773	-0.130152	-0.0698206	-0.211314	-0.475477	-0.0491525	0.0208734	0.012112	-0.127493	0.0568119	-0.269401	-0.58485	-0.376664	0.0751405	1.72813	1.4038	0.0451735	-0.0432545	-0.0715524	-0.545788	0.271538	2.30658	1.43965	-0.00973252	0.0262223
1.38	-0.126129	-0.0541787	0.0335148	0.76245	1.00215	-0.323193	0.886468	-0.01635	-0.128381	-1.44544	0.134085	0.010744	0.00797773	-0.164135	-0.0856932	-0.232197	-0.464045	-0.123757	0.0208734	0.012112	-0.120088	0.0682265	-0.272518	-0.61169	-0.386674	0.0607844	1.75525	1.40449	0.0451735	-0.0432545	-0.0646953	-0.542914	0.27534	2.33238	1.45025	-0.00973252	0.0262223
1.39	-0.13191	-0.0571079	0.0309237	0.764711	1.00717	-0.322905	0.879126	-0.0137103	-0.133036	-1.31925	0.119726	0.010744	0.00797773	-0.186834	-0.0971654	-0.249988	-0.47042	-0.183167	0.0208734	0.012112	-0.110695	0.075993	-0.274179	-0.636897	-0.394854	0.0454944	1.78048	1.40379	0.0451735	-0.0432545	-0.0601528	-0.541438	0.280852	2.35471	1.45995	-0.00973252	0.0262223
1.4	-0.139184	-0.0564845	0.0279236	0.766676	1.01112	-0.322633	0.867773	-0.0111461	-0.134254	-1.1868	0.100997	0.010744	0.00797773	-0.199894	-0.103769	-0.262977	-0.49432	-0.226723	0.0208734	0.012112	-0.100295	0.0798158	-0.274311	-0.659756	-0.401096	0.029938	1.80323	1.40136	0.0451735	-0.0432545	-0.0578064	-0.541283	0.287739	2.37244	1.4679	-0.00973252	0.0262223
1.41	-0.146874	-0.0524452	0.0243536	0.768436	1.01403	-0.32235	0.851921	-0.00884073	-0.133035	-1.05021	0.0788618	0.010744	0.00797773	-0.205326	-0.105553	-0.270303	-0.534496	-0.255559	0.0208734	0.012112	-0.0898919	0.0797836	-0.272821	-0.679597	-0.40541	0.0147064	1.82291	1.39724	0.0451735	-0.0432545	-0.057683	-0.542256	0.295484	2.38457	1.47352	-0.00973252	0.0262223
1.42	-0.153987	-0.0455062	0.0201035	0.770086	1.01593	-0.32202	0.831484	-0.00695351	-0.130873	-0.912612	0.0543658	0.010744	0.00797773	-0.205122	-0.103147	-0.272152	-0.589069	-0.271926	0.0208734	0.012112	-0.0803308	0.0763992	-0.26964	-0.695836	-0.407966	0.000280031	1.83905	1.39165	0.0451735	-0.0432545	-0.0599166	-0.544049	0.30347	2.39034	1.47657	-0.00973252	0.0262223
1.43	-0.15978	-0.0365234	0.0151257	0.771709	1.01681	-0.321607	0.80699	-0.00554025	-0.129451	-0.778121	0.0285365	0.010744	0.00797773	-0.200951	-0.0977172	-0.269656	-0.655876	-0.278435	0.0208734	0.012112	-0.0721779	0.0705509	-0.264744	-0.707999	-0.409107	-0.012973	1.85136	1.38482	0.0451735	-0.0432545	-0.0646757	-0.546255	0.31111	2.38928	1.47701	-0.00973252	0.0262223
1.44	-0.163821	-0.0265722	0.0094508	0.773358	1.01668	-0.321096	0.779639	-0.00449144	-0.130264	-0.651667	0.00236473	0.010744	0.00797773	-0.193988	-0.0908137	-0.264529	-0.732766	-0.277446	0.0208734	0.012112	-0.0656873	0.0634156	-0.25815	-0.715725	-0.409317	-0.0247683	1.8597	1.3769	0.0451735	-0.0432545	-0.0720753	-0.548431	0.317965	2.38126	1.47486	-0.00973252	0.0262223
1.45	-0.166013	-0.0167231	0.0031541	0.775041	1.01553	-0.320498	0.751163	-0.00351426	-0.134199	-0.538601	-0.0231012	0.010744	0.00797773	-0.1849	-0.0841498	-0.258559	-0.81779	-0.270758	0.0208734	0.012112	-0.0608838	0.0563177	-0.249914	-0.718743	-0.409156	-0.0348621	1.86413	1.36787	0.0451735	-0.0432545	-0.0820991	-0.550168	0.323794	2.36646	1.47008	-0.00973252	0.0262223
1.46	-0.16648	-0.00799047	-0.00365357	0.776728	1.01337	-0.319831	0.723583	-0.00217873	-0.141191	-0.444204	-0.0465615	0.010744	0.00797773	-0.173905	-0.0793198	-0.253187	-0.909301	-0.259583	0.0208734	0.012112	-0.0576711	0.0504942	-0.240128	-0.716847	-0.409176	-0.0430127	1.86485	1.35767	0.0451735	-0.0432545	-0.094561	-0.551175	0.328542	2.3453	1.46263	-0.00973252	0.0262223
